<?xml version="1.0" encoding="utf-8"?>
<!-- Generator: Adobe Illustrator 16.0.4, SVG Export Plug-In . SVG Version: 6.00 Build 0)  -->
<!DOCTYPE svg PUBLIC "-//W3C//DTD SVG 1.1//EN" "http://www.w3.org/Graphics/SVG/1.1/DTD/svg11.dtd">
<svg version="1.1" id="Layer_1" xmlns="http://www.w3.org/2000/svg" xmlns:xlink="http://www.w3.org/1999/xlink" x="0px" y="0px"
	 width="512px" height="512px" viewBox="0 0 512 512" enable-background="new 0 0 512 512" xml:space="preserve">
<g>
	<g>
		<path fill="#0A2E3D" d="M151.538,234.905h145.24v85.817c-0.746,42.192-14.757,77.541-42.017,106.051
			c-27.45,28.317-62.003,42.861-103.645,43.635c-32.123-0.773-58.92-8.869-80.394-24.306
			c-21.854-14.853-37.728-32.019-47.627-51.507c-2.989-6.362-5.696-12.44-8.119-18.226c-2.244-5.979-4.111-13.501-5.604-22.571
			C6.57,336.828,5.174,304.226,5.174,256c0-48.996,1.396-81.786,4.199-98.378c2.988-16.59,7.561-29.995,13.724-40.221
			C32.996,97.92,48.87,80.56,70.724,65.318c21.474-15.431,48.271-23.338,80.394-23.727c39.406,0.389,71.526,12.441,96.366,36.165
			c24.835,23.917,40.52,53.525,47.059,88.817h-65.64c-5.056-17.059-14.219-31.601-27.492-43.617
			c-13.844-11.434-30.675-17.345-50.496-17.738c-14.587,0.394-27.12,3.386-37.591,8.992c-10.66,5.799-19.262,13.044-25.805,21.746
			c-8.049,9.086-13.377,20.784-15.99,35.086c-2.996,15.078-4.492,43.398-4.492,84.957c0,41.562,1.496,69.686,4.492,84.379
			c2.622,14.691,7.959,26.58,16.002,35.664c6.549,8.702,15.158,15.76,25.827,21.169c10.479,6.375,23.02,9.568,37.619,9.568
			c24.144,0,44.071-8.517,59.796-25.54c15.72-16.257,23.768-37.632,24.144-64.147v-22.06h-83.378V234.905z"/>
	</g>
	<g>
		<path fill="#0A2E3D" d="M408.317,167.671h26.228v74.704h72.281v27.247h-72.281v74.704h-26.228v-74.704h-72.466v-27.247h72.466
			V167.671z"/>
	</g>
</g>
</svg>
