<?xml version="1.0" encoding="utf-8"?>
<!-- Generator: Adobe Illustrator 16.0.4, SVG Export Plug-In . SVG Version: 6.00 Build 0)  -->
<!DOCTYPE svg PUBLIC "-//W3C//DTD SVG 1.1//EN" "http://www.w3.org/Graphics/SVG/1.1/DTD/svg11.dtd">
<svg version="1.1" id="Layer_1" xmlns="http://www.w3.org/2000/svg" xmlns:xlink="http://www.w3.org/1999/xlink" x="0px" y="0px"
	 width="512px" height="512px" viewBox="0 0 512 512" enable-background="new 0 0 512 512" xml:space="preserve">
<path fill="#0A2E3D" d="M277.938,4.269v116.418h116.388v89.912H277.938V339.65c0,29.25-0.367,46.065,2.697,54.346
	c3.098,8.277,10.824,16.787,19.193,21.707c11.162,6.684,23.854,10.041,38.203,10.041c25.51,0,50.805-8.324,76.055-24.818v79.363
	c-21.51,10.148-40.979,17.201-58.424,21.371c-17.433,4.047-36.332,6.07-56.539,6.07c-23.041,0-36.607-2.882-54.33-8.66
	c-17.676-5.857-32.761-14.183-45.24-24.883c-12.532-10.777-21.147-22.197-25.984-34.369c-4.829-12.097-7.251-29.664-7.251-52.691
	V210.599H97.937v-71.286c19.761-6.423,42.718-15.622,56.769-27.656c14.157-11.988,25.439-26.368,34.002-43.17
	c8.508-16.848,14.396-38.249,17.607-64.219L277.938,4.269L277.938,4.269z"/>
</svg>
