<?xml version="1.0" encoding="utf-8"?>
<!-- Generator: Adobe Illustrator 16.0.4, SVG Export Plug-In . SVG Version: 6.00 Build 0)  -->
<!DOCTYPE svg PUBLIC "-//W3C//DTD SVG 1.1//EN" "http://www.w3.org/Graphics/SVG/1.1/DTD/svg11.dtd">
<svg version="1.1" id="Layer_1" xmlns="http://www.w3.org/2000/svg" xmlns:xlink="http://www.w3.org/1999/xlink" x="0px" y="0px"
	 width="512px" height="512px" viewBox="0 0 512 512" enable-background="new 0 0 512 512" xml:space="preserve">
<g>
	<polygon fill="#0A2E3D" points="180.38,20.577 158.651,95.069 156.436,95.069 133.703,20.577 98.238,20.577 140.124,133.143 
		140.124,207.049 175.255,207.049 175.255,129.647 216.062,20.577 	"/>
	<path fill="#0A2E3D" d="M250.666,174.845c0,3.779,1.162,6.671,3.369,8.729c2.141,2.09,5.377,3.077,9.456,3.077
		c4.23,0,7.6-1.037,10.083-3.127c2.483-2.107,3.753-5.033,3.753-8.678V99.901c0-3.06-1.27-5.417-3.837-7.324
		c-2.583-1.856-5.877-2.726-9.999-2.726c-3.771,0-6.88,0.87-9.347,2.726c-2.266,1.906-3.479,4.264-3.479,7.324V174.845z
		 M218.562,100.888c0-10.651,4.213-19.129,12.565-25.466c8.41-6.321,19.739-9.447,33.869-9.447c12.892,0,23.5,3.361,31.744,9.982
		c8.21,6.671,12.357,15.232,12.357,25.75v71.047c0,11.755-4.048,20.985-12.14,27.707c-8.109,6.722-19.238,10.049-33.417,10.049
		c-13.595,0-24.472-3.461-32.707-10.316c-8.185-7.006-12.272-16.236-12.272-27.958V100.888z"/>
	<path fill="#0A2E3D" d="M423.303,69.469v137.597h-31.151v-15.25c-5.719,5.602-11.722,9.932-17.976,12.825
		c-6.186,2.926-12.172,4.381-17.991,4.381c-7.324,0-12.741-2.073-16.354-6.137c-3.645-4.113-5.45-10.233-5.45-18.46V69.469h31.135
		v105.459c0,3.311,0.669,5.618,2.006,7.056c1.272,1.471,3.36,2.19,6.321,2.19c2.239,0,5.218-0.97,8.695-2.893
		c3.444-1.906,6.721-4.381,9.614-7.391V69.469H423.303z"/>
	<path fill="#0A2E3D" d="M411.982,354.027c-4.432,0-7.224,1.104-9.18,3.428c-1.94,2.189-2.476,6.002-2.476,11.186v11.99h23.31
		v-11.99c0-5.184-0.77-8.996-2.709-11.186C419.072,355.131,416.162,354.027,411.982,354.027"/>
	<path fill="#0A2E3D" d="M316.472,353.592c-1.974,0-3.628,0.367-5.517,1.203c-1.957,0.803-3.931,2.107-5.402,3.848v77.785
		c1.472,2.074,4.013,3.562,6.221,4.365c2.072,0.984,4.163,1.438,6.555,1.438c3.344,0,5.435-0.953,7.089-2.742
		c1.572-1.674,2.007-4.5,2.007-8.561v-64.494c0-4.215-0.669-7.441-2.607-9.564C322.843,354.629,320.185,353.592,316.472,353.592"/>
	<path fill="#0A2E3D" d="M452.814,401.045h-52.487v23.227c0,6.555,0.535,11.137,2.342,13.645c1.873,2.559,4.715,3.861,9.196,3.861
		c4.548,0,7.424-1.119,9.28-3.26c1.822-2.174,2.524-6.938,2.524-14.246v-5.752h29.145v6.453c0,12.826-3.595,22.508-10.551,28.945
		c-6.955,6.504-17.273,9.664-31.168,9.664c-12.34,0-22.205-3.443-29.262-10.283c-7.123-6.822-10.668-16.285-10.668-28.326v-56.131
		c0-10.785,3.896-19.598,11.738-26.504c7.893-6.789,17.824-10.215,30.266-10.215c12.675,0,22.557,3.176,29.378,9.529
		c6.739,6.287,10.267,15.4,10.267,27.189V401.045z M356.586,434.371c0,8.861-2.274,15.602-6.538,20.383
		c-4.331,4.648-10.651,7.039-18.845,7.039c-5.417,0-9.999-0.902-14.18-2.742c-4.18-1.789-8.544-4.664-11.454-8.428v10.184h-29.161
		v-170.57h29.161v55.178c2.91-3.811,7.308-6.771,11.505-8.727c4.213-1.924,8.277-2.91,12.591-2.91c8.795,0,15.399,2.66,19.998,7.926
		c4.632,5.352,6.923,13.127,6.923,23.309V434.371z M256,460.807h-27.706v-14.33c-4.364,5.084-10.442,8.912-15.993,11.537
		c-5.427,2.691-10.785,4.029-16.028,4.029c-6.403,0-11.044-1.904-14.329-5.566c-3.202-3.797-4.674-9.297-4.674-16.789V335.432
		h27.707v95.678c0,2.928,0.427,5.102,1.538,6.389c1.229,1.305,3.043,1.957,5.652,1.957c1.998,0,4.447-0.82,7.582-2.627
		c3.152-1.787,5.635-3.945,8.545-6.688v-94.709H256V460.807z M164.151,315.016h-32.087v145.791h-30.616V315.016h-32.07v-24.779
		h94.773V315.016z M462.513,243.584H49.488c-22.824,0-41.335,18.511-41.335,41.333v165.17c0,22.824,18.511,41.336,41.335,41.336
		h413.024c22.824,0,41.318-18.512,41.318-41.336v-165.17C503.831,262.096,485.337,243.584,462.513,243.584"/>
	<rect x="8.153" y="20.577" fill="none" width="495.693" height="470.847"/>
</g>
</svg>
